<svg width="1400" height="550" viewBox="0 0 1400 550" fill="none" xmlns="http://www.w3.org/2000/svg">
<path d="M308.18 173.036C307.54 168.969 305.141 166.935 300.982 166.935C299.428 166.935 298.126 167.301 297.075 168.032C296.024 168.717 295.156 169.631 294.47 170.774C293.83 171.871 293.373 173.105 293.099 174.475C292.825 175.801 292.688 177.126 292.688 178.451C292.688 179.731 292.825 181.033 293.099 182.359C293.373 183.684 293.807 184.895 294.402 185.992C295.041 187.043 295.887 187.911 296.938 188.597C297.989 189.282 299.269 189.625 300.777 189.625C303.107 189.625 304.89 188.985 306.123 187.706C307.403 186.38 308.203 184.621 308.523 182.427H317.914C317.274 187.134 315.446 190.722 312.43 193.189C309.414 195.657 305.552 196.891 300.845 196.891C298.195 196.891 295.75 196.457 293.51 195.589C291.317 194.675 289.443 193.418 287.889 191.818C286.336 190.219 285.125 188.322 284.256 186.129C283.388 183.89 282.954 181.445 282.954 178.794C282.954 176.052 283.342 173.516 284.119 171.185C284.942 168.809 286.13 166.775 287.684 165.084C289.237 163.348 291.134 162 293.373 161.04C295.613 160.08 298.172 159.6 301.051 159.6C303.153 159.6 305.164 159.874 307.083 160.423C309.048 160.971 310.785 161.817 312.293 162.959C313.847 164.056 315.103 165.45 316.063 167.141C317.023 168.786 317.571 170.751 317.708 173.036H308.18ZM329.994 178.314C329.994 179.731 330.131 181.125 330.405 182.496C330.679 183.821 331.136 185.032 331.776 186.129C332.461 187.18 333.353 188.025 334.449 188.665C335.546 189.305 336.917 189.625 338.562 189.625C340.208 189.625 341.578 189.305 342.675 188.665C343.818 188.025 344.709 187.18 345.349 186.129C346.034 185.032 346.514 183.821 346.788 182.496C347.062 181.125 347.2 179.731 347.2 178.314C347.2 176.898 347.062 175.504 346.788 174.133C346.514 172.762 346.034 171.551 345.349 170.5C344.709 169.449 343.818 168.603 342.675 167.963C341.578 167.278 340.208 166.935 338.562 166.935C336.917 166.935 335.546 167.278 334.449 167.963C333.353 168.603 332.461 169.449 331.776 170.5C331.136 171.551 330.679 172.762 330.405 174.133C330.131 175.504 329.994 176.898 329.994 178.314ZM320.26 178.314C320.26 175.481 320.694 172.922 321.562 170.637C322.43 168.306 323.664 166.341 325.264 164.741C326.863 163.096 328.783 161.84 331.022 160.971C333.261 160.057 335.775 159.6 338.562 159.6C341.35 159.6 343.863 160.057 346.103 160.971C348.388 161.84 350.33 163.096 351.929 164.741C353.529 166.341 354.763 168.306 355.631 170.637C356.499 172.922 356.934 175.481 356.934 178.314C356.934 181.148 356.499 183.707 355.631 185.992C354.763 188.277 353.529 190.242 351.929 191.887C350.33 193.487 348.388 194.72 346.103 195.589C343.863 196.457 341.35 196.891 338.562 196.891C335.775 196.891 333.261 196.457 331.022 195.589C328.783 194.72 326.863 193.487 325.264 191.887C323.664 190.242 322.43 188.277 321.562 185.992C320.694 183.707 320.26 181.148 320.26 178.314ZM359.013 188.665L377.452 167.895H360.384V160.56H390.271V167.895L371.831 188.665H391.573V196H359.013V188.665ZM412.176 200.387C411.125 203.266 409.663 205.323 407.789 206.557C405.915 207.79 403.311 208.407 399.975 208.407C398.969 208.407 397.964 208.362 396.958 208.27C395.999 208.225 395.016 208.156 394.011 208.065V200.044C394.925 200.136 395.862 200.227 396.821 200.319C397.781 200.41 398.741 200.433 399.7 200.387C400.98 200.25 401.917 199.747 402.511 198.879C403.151 198.011 403.471 197.051 403.471 196C403.471 195.223 403.333 194.492 403.059 193.806L390.652 160.56H401.003L409.023 184.826H409.16L416.906 160.56H426.983L412.176 200.387ZM470.366 178.177C470.366 176.715 470.229 175.321 469.955 173.996C469.681 172.625 469.201 171.436 468.515 170.431C467.876 169.38 467.03 168.535 465.979 167.895C464.928 167.255 463.603 166.935 462.003 166.935C460.404 166.935 459.056 167.255 457.959 167.895C456.862 168.535 455.971 169.38 455.285 170.431C454.646 171.482 454.166 172.693 453.846 174.064C453.572 175.389 453.434 176.783 453.434 178.246C453.434 179.617 453.594 180.988 453.914 182.359C454.234 183.73 454.737 184.964 455.422 186.06C456.154 187.111 457.045 187.98 458.096 188.665C459.193 189.305 460.495 189.625 462.003 189.625C463.603 189.625 464.928 189.305 465.979 188.665C467.076 188.025 467.944 187.18 468.584 186.129C469.224 185.032 469.681 183.798 469.955 182.427C470.229 181.056 470.366 179.64 470.366 178.177ZM470.503 191.476H470.366C469.224 193.395 467.716 194.789 465.842 195.657C464.014 196.48 461.935 196.891 459.604 196.891C456.953 196.891 454.623 196.388 452.612 195.383C450.601 194.332 448.933 192.938 447.608 191.202C446.328 189.419 445.346 187.386 444.66 185.101C444.02 182.816 443.7 180.439 443.7 177.972C443.7 175.595 444.02 173.31 444.66 171.117C445.346 168.877 446.328 166.912 447.608 165.221C448.933 163.53 450.578 162.182 452.543 161.177C454.508 160.126 456.793 159.6 459.398 159.6C461.5 159.6 463.488 160.057 465.362 160.971C467.281 161.84 468.79 163.142 469.886 164.879H470.023V147.056H479.757V196H470.503V191.476ZM495.066 155.076H485.332V147.056H495.066V155.076ZM485.332 160.56H495.066V196H485.332V160.56ZM500.675 160.56H509.929V165.496H510.134C511.368 163.439 512.968 161.954 514.933 161.04C516.898 160.08 518.909 159.6 520.965 159.6C523.57 159.6 525.695 159.966 527.34 160.697C529.031 161.383 530.357 162.365 531.316 163.645C532.276 164.879 532.939 166.41 533.304 168.238C533.715 170.02 533.921 172.008 533.921 174.201V196H524.187V175.984C524.187 173.059 523.73 170.888 522.816 169.471C521.902 168.009 520.28 167.278 517.949 167.278C515.299 167.278 513.379 168.078 512.191 169.677C511.003 171.231 510.409 173.813 510.409 177.423V196H500.675V160.56ZM549.261 155.076H539.527V147.056H549.261V155.076ZM539.527 160.56H549.261V196H539.527V160.56ZM554.869 160.56H564.123V165.496H564.329C565.563 163.439 567.162 161.954 569.127 161.04C571.092 160.08 573.103 159.6 575.159 159.6C577.764 159.6 579.889 159.966 581.535 160.697C583.225 161.383 584.551 162.365 585.51 163.645C586.47 164.879 587.133 166.41 587.498 168.238C587.91 170.02 588.115 172.008 588.115 174.201V196H578.381V175.984C578.381 173.059 577.924 170.888 577.01 169.471C576.096 168.009 574.474 167.278 572.143 167.278C569.493 167.278 567.573 168.078 566.385 169.677C565.197 171.231 564.603 173.813 564.603 177.423V196H554.869V160.56ZM609.967 187.637C611.338 187.637 612.549 187.363 613.6 186.814C614.651 186.266 615.519 185.535 616.205 184.621C616.89 183.707 617.393 182.679 617.713 181.536C618.079 180.348 618.261 179.114 618.261 177.834C618.261 176.372 618.124 175.001 617.85 173.721C617.576 172.396 617.119 171.231 616.479 170.225C615.839 169.22 614.994 168.42 613.943 167.826C612.892 167.232 611.566 166.935 609.967 166.935C608.596 166.935 607.408 167.209 606.402 167.758C605.443 168.306 604.62 169.06 603.935 170.02C603.295 170.934 602.815 172.008 602.495 173.242C602.221 174.43 602.084 175.687 602.084 177.012C602.084 178.291 602.198 179.571 602.427 180.851C602.701 182.084 603.135 183.204 603.729 184.21C604.369 185.215 605.191 186.037 606.197 186.677C607.202 187.317 608.459 187.637 609.967 187.637ZM627.516 193.738C627.516 195.155 627.31 196.777 626.899 198.605C626.533 200.433 625.71 202.124 624.431 203.678C623.151 205.277 621.3 206.625 618.878 207.722C616.456 208.819 613.212 209.367 609.144 209.367C607.408 209.367 605.626 209.139 603.798 208.682C602.015 208.27 600.37 207.608 598.862 206.694C597.4 205.78 596.166 204.592 595.16 203.129C594.201 201.712 593.652 199.999 593.515 197.988H603.181C603.638 199.816 604.529 201.073 605.854 201.758C607.179 202.489 608.71 202.855 610.447 202.855C613.189 202.855 615.177 202.032 616.411 200.387C617.69 198.742 618.307 196.663 618.261 194.149V189.488H618.124C617.073 191.361 615.565 192.755 613.6 193.669C611.681 194.538 609.647 194.972 607.499 194.972C604.849 194.972 602.564 194.515 600.644 193.601C598.725 192.641 597.148 191.361 595.914 189.762C594.68 188.117 593.766 186.22 593.172 184.072C592.624 181.879 592.35 179.571 592.35 177.149C592.35 174.864 592.67 172.67 593.309 170.568C593.995 168.42 594.978 166.547 596.257 164.947C597.537 163.302 599.113 162 600.987 161.04C602.906 160.08 605.1 159.6 607.568 159.6C609.898 159.6 611.932 160.034 613.669 160.903C615.451 161.771 616.936 163.233 618.124 165.29H618.261V160.56H627.516V193.738Z" fill="#002855"/>
<path d="M331.093 228.617H325.266V222.104H331.093V219.362C331.093 216.209 332.075 213.627 334.04 211.616C336.005 209.606 338.976 208.6 342.952 208.6C343.82 208.6 344.688 208.646 345.556 208.737C346.425 208.783 347.27 208.829 348.093 208.874V216.141C346.95 216.004 345.762 215.935 344.528 215.935C343.203 215.935 342.243 216.255 341.649 216.895C341.101 217.489 340.827 218.517 340.827 219.979V222.104H347.544V228.617H340.827V257.544H331.093V228.617ZM382.985 257.544H373.731V252.609H373.525C372.291 254.665 370.692 256.151 368.727 257.065C366.762 257.979 364.751 258.436 362.694 258.436C360.089 258.436 357.942 258.093 356.251 257.407C354.606 256.722 353.303 255.762 352.343 254.528C351.384 253.249 350.698 251.718 350.287 249.935C349.921 248.107 349.739 246.097 349.739 243.903V222.104H359.473V242.121C359.473 245.046 359.93 247.239 360.844 248.702C361.758 250.118 363.38 250.827 365.711 250.827C368.361 250.827 370.28 250.05 371.469 248.496C372.657 246.896 373.251 244.292 373.251 240.681V222.104H382.985V257.544ZM388.316 222.104H397.57V228.685H397.708C398.165 227.588 398.781 226.583 399.558 225.669C400.335 224.709 401.226 223.91 402.232 223.27C403.237 222.584 404.311 222.059 405.454 221.693C406.596 221.328 407.784 221.145 409.018 221.145C409.658 221.145 410.366 221.259 411.143 221.487V230.536C410.686 230.445 410.138 230.376 409.498 230.33C408.858 230.239 408.241 230.193 407.647 230.193C405.865 230.193 404.357 230.49 403.123 231.084C401.889 231.678 400.884 232.501 400.107 233.552C399.376 234.558 398.85 235.746 398.53 237.117C398.21 238.488 398.05 239.973 398.05 241.572V257.544H388.316V222.104ZM414.108 222.104H423.362V227.04H423.568C424.802 224.983 426.401 223.498 428.366 222.584C430.331 221.625 432.342 221.145 434.399 221.145C437.003 221.145 439.129 221.51 440.774 222.242C442.465 222.927 443.79 223.91 444.75 225.189C445.709 226.423 446.372 227.954 446.737 229.782C447.149 231.564 447.354 233.552 447.354 235.746V257.544H437.62V237.528C437.62 234.603 437.163 232.433 436.249 231.016C435.335 229.553 433.713 228.822 431.382 228.822C428.732 228.822 426.812 229.622 425.624 231.221C424.436 232.775 423.842 235.357 423.842 238.968V257.544H414.108V222.104ZM462.694 216.62H452.96V208.6H462.694V216.62ZM452.96 222.104H462.694V257.544H452.96V222.104ZM480.641 222.104H487.77V228.617H480.641V246.165C480.641 247.81 480.915 248.907 481.464 249.456C482.012 250.004 483.109 250.278 484.754 250.278C485.302 250.278 485.828 250.255 486.331 250.21C486.833 250.164 487.313 250.095 487.77 250.004V257.544C486.948 257.682 486.034 257.773 485.028 257.819C484.023 257.864 483.04 257.887 482.081 257.887C480.573 257.887 479.133 257.773 477.762 257.544C476.437 257.362 475.248 256.973 474.197 256.379C473.192 255.785 472.392 254.94 471.798 253.843C471.204 252.746 470.907 251.306 470.907 249.524V228.617H465.012V222.104H470.907V211.479H480.641V222.104ZM523.592 257.544H514.337V252.609H514.132C512.898 254.665 511.298 256.151 509.333 257.065C507.368 257.979 505.357 258.436 503.301 258.436C500.696 258.436 498.548 258.093 496.857 257.407C495.212 256.722 493.91 255.762 492.95 254.528C491.99 253.249 491.305 251.718 490.893 249.935C490.528 248.107 490.345 246.097 490.345 243.903V222.104H500.079V242.121C500.079 245.046 500.536 247.239 501.45 248.702C502.364 250.118 503.986 250.827 506.317 250.827C508.968 250.827 510.887 250.05 512.075 248.496C513.263 246.896 513.858 244.292 513.858 240.681V222.104H523.592V257.544ZM528.923 222.104H538.177V228.685H538.314C538.771 227.588 539.388 226.583 540.165 225.669C540.942 224.709 541.833 223.91 542.838 223.27C543.844 222.584 544.918 222.059 546.06 221.693C547.203 221.328 548.391 221.145 549.625 221.145C550.265 221.145 550.973 221.259 551.75 221.487V230.536C551.293 230.445 550.744 230.376 550.105 230.33C549.465 230.239 548.848 230.193 548.254 230.193C546.471 230.193 544.963 230.49 543.73 231.084C542.496 231.678 541.49 232.501 540.713 233.552C539.982 234.558 539.457 235.746 539.137 237.117C538.817 238.488 538.657 239.973 538.657 241.572V257.544H528.923V222.104ZM576.16 236.02C575.703 233.552 574.88 231.678 573.692 230.399C572.55 229.119 570.79 228.479 568.414 228.479C566.86 228.479 565.557 228.754 564.506 229.302C563.501 229.805 562.678 230.445 562.039 231.221C561.445 231.998 561.01 232.821 560.736 233.689C560.508 234.558 560.371 235.334 560.325 236.02H576.16ZM560.325 242.189C560.462 245.343 561.262 247.628 562.724 249.044C564.186 250.461 566.289 251.169 569.031 251.169C570.996 251.169 572.687 250.689 574.103 249.73C575.52 248.724 576.388 247.673 576.708 246.577H585.277C583.906 250.827 581.804 253.866 578.97 255.694C576.137 257.522 572.709 258.436 568.688 258.436C565.9 258.436 563.387 258.001 561.147 257.133C558.908 256.219 557.012 254.94 555.458 253.294C553.904 251.649 552.693 249.684 551.825 247.399C551.002 245.114 550.591 242.601 550.591 239.859C550.591 237.208 551.025 234.74 551.893 232.455C552.762 230.17 553.995 228.205 555.595 226.56C557.194 224.869 559.091 223.544 561.285 222.584C563.524 221.625 565.992 221.145 568.688 221.145C571.704 221.145 574.332 221.739 576.571 222.927C578.81 224.069 580.638 225.623 582.055 227.588C583.517 229.553 584.569 231.793 585.208 234.306C585.848 236.82 586.077 239.447 585.894 242.189H560.325Z" fill="#002855"/>
<path d="M299.087 121.094C299.087 122.03 299.204 122.953 299.438 123.863C299.698 124.747 300.075 125.54 300.569 126.242C301.089 126.944 301.739 127.503 302.519 127.919C303.325 128.335 304.261 128.543 305.327 128.543C306.445 128.543 307.394 128.322 308.174 127.88C308.954 127.438 309.591 126.866 310.085 126.164C310.579 125.436 310.93 124.617 311.138 123.707C311.372 122.797 311.489 121.874 311.489 120.938C311.489 119.95 311.372 119.001 311.138 118.091C310.904 117.155 310.527 116.336 310.007 115.634C309.513 114.932 308.863 114.373 308.057 113.957C307.251 113.515 306.276 113.294 305.132 113.294C304.014 113.294 303.065 113.515 302.285 113.957C301.505 114.399 300.881 114.984 300.413 115.712C299.945 116.44 299.607 117.272 299.399 118.208C299.191 119.144 299.087 120.106 299.087 121.094ZM314.687 131H311.372V128.27H311.294C310.748 129.388 309.89 130.194 308.72 130.688C307.55 131.182 306.263 131.429 304.859 131.429C303.299 131.429 301.934 131.143 300.764 130.571C299.62 129.999 298.658 129.232 297.878 128.27C297.124 127.308 296.552 126.19 296.162 124.916C295.772 123.642 295.577 122.29 295.577 120.86C295.577 119.43 295.759 118.078 296.123 116.804C296.513 115.53 297.085 114.425 297.839 113.489C298.619 112.527 299.581 111.773 300.725 111.227C301.895 110.655 303.247 110.369 304.781 110.369C305.301 110.369 305.86 110.421 306.458 110.525C307.056 110.629 307.654 110.811 308.252 111.071C308.85 111.305 309.409 111.63 309.929 112.046C310.475 112.436 310.93 112.93 311.294 113.528H311.372V103.154H314.687V131ZM333.788 118.988C333.736 118.208 333.554 117.467 333.242 116.765C332.956 116.063 332.553 115.465 332.033 114.971C331.539 114.451 330.941 114.048 330.239 113.762C329.563 113.45 328.809 113.294 327.977 113.294C327.119 113.294 326.339 113.45 325.637 113.762C324.961 114.048 324.376 114.451 323.882 114.971C323.388 115.491 322.998 116.102 322.712 116.804C322.426 117.48 322.257 118.208 322.205 118.988H333.788ZM336.986 124.604C336.544 126.866 335.569 128.569 334.061 129.713C332.553 130.857 330.655 131.429 328.367 131.429C326.755 131.429 325.351 131.169 324.155 130.649C322.985 130.129 321.997 129.401 321.191 128.465C320.385 127.529 319.774 126.411 319.358 125.111C318.968 123.811 318.747 122.394 318.695 120.86C318.695 119.326 318.929 117.922 319.397 116.648C319.865 115.374 320.515 114.269 321.347 113.333C322.205 112.397 323.206 111.669 324.35 111.149C325.52 110.629 326.794 110.369 328.172 110.369C329.966 110.369 331.448 110.746 332.618 111.5C333.814 112.228 334.763 113.164 335.465 114.308C336.193 115.452 336.687 116.7 336.947 118.052C337.233 119.404 337.35 120.691 337.298 121.913H322.205C322.179 122.797 322.283 123.642 322.517 124.448C322.751 125.228 323.128 125.93 323.648 126.554C324.168 127.152 324.831 127.633 325.637 127.997C326.443 128.361 327.392 128.543 328.484 128.543C329.888 128.543 331.032 128.218 331.916 127.568C332.826 126.918 333.424 125.93 333.71 124.604H336.986ZM354.735 118.988C354.683 118.208 354.501 117.467 354.189 116.765C353.903 116.063 353.5 115.465 352.98 114.971C352.486 114.451 351.888 114.048 351.186 113.762C350.51 113.45 349.756 113.294 348.924 113.294C348.066 113.294 347.286 113.45 346.584 113.762C345.908 114.048 345.323 114.451 344.829 114.971C344.335 115.491 343.945 116.102 343.659 116.804C343.373 117.48 343.204 118.208 343.152 118.988H354.735ZM357.933 124.604C357.491 126.866 356.516 128.569 355.008 129.713C353.5 130.857 351.602 131.429 349.314 131.429C347.702 131.429 346.298 131.169 345.102 130.649C343.932 130.129 342.944 129.401 342.138 128.465C341.332 127.529 340.721 126.411 340.305 125.111C339.915 123.811 339.694 122.394 339.642 120.86C339.642 119.326 339.876 117.922 340.344 116.648C340.812 115.374 341.462 114.269 342.294 113.333C343.152 112.397 344.153 111.669 345.297 111.149C346.467 110.629 347.741 110.369 349.119 110.369C350.913 110.369 352.395 110.746 353.565 111.5C354.761 112.228 355.71 113.164 356.412 114.308C357.14 115.452 357.634 116.7 357.894 118.052C358.18 119.404 358.297 120.691 358.245 121.913H343.152C343.126 122.797 343.23 123.642 343.464 124.448C343.698 125.228 344.075 125.93 344.595 126.554C345.115 127.152 345.778 127.633 346.584 127.997C347.39 128.361 348.339 128.543 349.431 128.543C350.835 128.543 351.979 128.218 352.863 127.568C353.773 126.918 354.371 125.93 354.657 124.604H357.933ZM361.799 110.837H365.114V113.567H365.192C365.738 112.449 366.596 111.643 367.766 111.149C368.936 110.629 370.223 110.369 371.627 110.369C373.187 110.369 374.539 110.655 375.683 111.227C376.853 111.799 377.815 112.579 378.569 113.567C379.349 114.529 379.934 115.647 380.324 116.921C380.714 118.195 380.909 119.547 380.909 120.977C380.909 122.407 380.714 123.759 380.324 125.033C379.96 126.307 379.388 127.425 378.608 128.387C377.854 129.323 376.892 130.064 375.722 130.61C374.578 131.156 373.239 131.429 371.705 131.429C371.211 131.429 370.652 131.377 370.028 131.273C369.43 131.169 368.832 131 368.234 130.766C367.636 130.532 367.064 130.22 366.518 129.83C365.998 129.414 365.556 128.907 365.192 128.309H365.114V138.683H361.799V110.837ZM377.399 120.743C377.399 119.807 377.269 118.897 377.009 118.013C376.775 117.103 376.398 116.297 375.878 115.595C375.384 114.893 374.734 114.334 373.928 113.918C373.148 113.502 372.225 113.294 371.159 113.294C370.041 113.294 369.092 113.515 368.312 113.957C367.532 114.399 366.895 114.984 366.401 115.712C365.907 116.414 365.543 117.22 365.309 118.13C365.101 119.04 364.997 119.963 364.997 120.899C364.997 121.887 365.114 122.849 365.348 123.785C365.582 124.695 365.946 125.501 366.44 126.203C366.96 126.905 367.623 127.477 368.429 127.919C369.235 128.335 370.21 128.543 371.354 128.543C372.498 128.543 373.447 128.322 374.201 127.88C374.981 127.438 375.605 126.853 376.073 126.125C376.541 125.397 376.879 124.565 377.087 123.629C377.295 122.693 377.399 121.731 377.399 120.743ZM398.072 121.094C398.072 122.03 398.189 122.953 398.423 123.863C398.683 124.747 399.06 125.54 399.554 126.242C400.074 126.944 400.724 127.503 401.504 127.919C402.31 128.335 403.246 128.543 404.312 128.543C405.43 128.543 406.379 128.322 407.159 127.88C407.939 127.438 408.576 126.866 409.07 126.164C409.564 125.436 409.915 124.617 410.123 123.707C410.357 122.797 410.474 121.874 410.474 120.938C410.474 119.95 410.357 119.001 410.123 118.091C409.889 117.155 409.512 116.336 408.992 115.634C408.498 114.932 407.848 114.373 407.042 113.957C406.236 113.515 405.261 113.294 404.117 113.294C402.999 113.294 402.05 113.515 401.27 113.957C400.49 114.399 399.866 114.984 399.398 115.712C398.93 116.44 398.592 117.272 398.384 118.208C398.176 119.144 398.072 120.106 398.072 121.094ZM413.672 131H410.357V128.27H410.279C409.733 129.388 408.875 130.194 407.705 130.688C406.535 131.182 405.248 131.429 403.844 131.429C402.284 131.429 400.919 131.143 399.749 130.571C398.605 129.999 397.643 129.232 396.863 128.27C396.109 127.308 395.537 126.19 395.147 124.916C394.757 123.642 394.562 122.29 394.562 120.86C394.562 119.43 394.744 118.078 395.108 116.804C395.498 115.53 396.07 114.425 396.824 113.489C397.604 112.527 398.566 111.773 399.71 111.227C400.88 110.655 402.232 110.369 403.766 110.369C404.286 110.369 404.845 110.421 405.443 110.525C406.041 110.629 406.639 110.811 407.237 111.071C407.835 111.305 408.394 111.63 408.914 112.046C409.46 112.436 409.915 112.93 410.279 113.528H410.357V103.154H413.672V131ZM422.282 107.21H418.967V103.154H422.282V107.21ZM418.967 110.837H422.282V131H418.967V110.837ZM429.446 124.643C429.472 125.371 429.641 125.995 429.953 126.515C430.265 127.009 430.668 127.412 431.162 127.724C431.682 128.01 432.254 128.218 432.878 128.348C433.528 128.478 434.191 128.543 434.867 128.543C435.387 128.543 435.933 128.504 436.505 128.426C437.077 128.348 437.597 128.205 438.065 127.997C438.559 127.789 438.962 127.49 439.274 127.1C439.586 126.684 439.742 126.164 439.742 125.54C439.742 124.682 439.417 124.032 438.767 123.59C438.117 123.148 437.298 122.797 436.31 122.537C435.348 122.251 434.295 122.004 433.151 121.796C432.007 121.562 430.941 121.25 429.953 120.86C428.991 120.444 428.185 119.872 427.535 119.144C426.885 118.416 426.56 117.402 426.56 116.102C426.56 115.088 426.781 114.217 427.223 113.489C427.691 112.761 428.276 112.176 428.978 111.734C429.706 111.266 430.512 110.928 431.396 110.72C432.306 110.486 433.203 110.369 434.087 110.369C435.231 110.369 436.284 110.473 437.246 110.681C438.208 110.863 439.053 111.201 439.781 111.695C440.535 112.163 441.133 112.813 441.575 113.645C442.017 114.451 442.277 115.465 442.355 116.687H439.04C438.988 116.037 438.819 115.504 438.533 115.088C438.247 114.646 437.883 114.295 437.441 114.035C436.999 113.775 436.505 113.593 435.959 113.489C435.439 113.359 434.906 113.294 434.36 113.294C433.866 113.294 433.359 113.333 432.839 113.411C432.345 113.489 431.89 113.632 431.474 113.84C431.058 114.022 430.72 114.282 430.46 114.62C430.2 114.932 430.07 115.348 430.07 115.868C430.07 116.44 430.265 116.921 430.655 117.311C431.071 117.675 431.591 117.987 432.215 118.247C432.839 118.481 433.541 118.689 434.321 118.871C435.101 119.027 435.881 119.196 436.661 119.378C437.493 119.56 438.299 119.781 439.079 120.041C439.885 120.301 440.587 120.652 441.185 121.094C441.809 121.51 442.303 122.043 442.667 122.693C443.057 123.343 443.252 124.149 443.252 125.111C443.252 126.333 442.992 127.347 442.472 128.153C441.978 128.959 441.315 129.609 440.483 130.103C439.677 130.597 438.754 130.935 437.714 131.117C436.7 131.325 435.686 131.429 434.672 131.429C433.554 131.429 432.488 131.312 431.474 131.078C430.46 130.844 429.563 130.467 428.783 129.947C428.003 129.401 427.379 128.699 426.911 127.841C426.443 126.957 426.183 125.891 426.131 124.643H429.446ZM460.607 117.311C460.347 116.037 459.801 115.049 458.969 114.347C458.137 113.645 457.019 113.294 455.615 113.294C454.419 113.294 453.418 113.515 452.612 113.957C451.806 114.399 451.156 114.984 450.662 115.712C450.194 116.44 449.856 117.285 449.648 118.247C449.44 119.183 449.336 120.158 449.336 121.172C449.336 122.108 449.44 123.018 449.648 123.902C449.882 124.786 450.233 125.579 450.701 126.281C451.169 126.957 451.78 127.503 452.534 127.919C453.288 128.335 454.185 128.543 455.225 128.543C456.863 128.543 458.137 128.114 459.047 127.256C459.983 126.398 460.555 125.189 460.763 123.629H464.156C463.792 126.125 462.856 128.049 461.348 129.401C459.866 130.753 457.838 131.429 455.264 131.429C453.73 131.429 452.365 131.182 451.169 130.688C449.999 130.194 449.011 129.492 448.205 128.582C447.425 127.672 446.827 126.593 446.411 125.345C446.021 124.071 445.826 122.68 445.826 121.172C445.826 119.664 446.021 118.26 446.411 116.96C446.801 115.634 447.386 114.49 448.166 113.528C448.972 112.54 449.973 111.773 451.169 111.227C452.365 110.655 453.756 110.369 455.342 110.369C456.486 110.369 457.552 110.512 458.54 110.798C459.554 111.058 460.438 111.474 461.192 112.046C461.972 112.618 462.609 113.346 463.103 114.23C463.597 115.088 463.909 116.115 464.039 117.311H460.607ZM470.283 120.938C470.283 122.16 470.439 123.252 470.751 124.214C471.089 125.15 471.544 125.943 472.116 126.593C472.688 127.217 473.351 127.698 474.105 128.036C474.885 128.374 475.704 128.543 476.562 128.543C477.42 128.543 478.226 128.374 478.98 128.036C479.76 127.698 480.436 127.217 481.008 126.593C481.58 125.943 482.022 125.15 482.334 124.214C482.672 123.252 482.841 122.16 482.841 120.938C482.841 119.716 482.672 118.637 482.334 117.701C482.022 116.739 481.58 115.933 481.008 115.283C480.436 114.633 479.76 114.139 478.98 113.801C478.226 113.463 477.42 113.294 476.562 113.294C475.704 113.294 474.885 113.463 474.105 113.801C473.351 114.139 472.688 114.633 472.116 115.283C471.544 115.933 471.089 116.739 470.751 117.701C470.439 118.637 470.283 119.716 470.283 120.938ZM466.773 120.938C466.773 119.456 466.981 118.078 467.397 116.804C467.813 115.504 468.437 114.386 469.269 113.45C470.101 112.488 471.128 111.734 472.35 111.188C473.572 110.642 474.976 110.369 476.562 110.369C478.174 110.369 479.578 110.642 480.774 111.188C481.996 111.734 483.023 112.488 483.855 113.45C484.687 114.386 485.311 115.504 485.727 116.804C486.143 118.078 486.351 119.456 486.351 120.938C486.351 122.42 486.143 123.798 485.727 125.072C485.311 126.346 484.687 127.464 483.855 128.426C483.023 129.362 481.996 130.103 480.774 130.649C479.578 131.169 478.174 131.429 476.562 131.429C474.976 131.429 473.572 131.169 472.35 130.649C471.128 130.103 470.101 129.362 469.269 128.426C468.437 127.464 467.813 126.346 467.397 125.072C466.981 123.798 466.773 122.42 466.773 120.938ZM506.952 131H503.832V127.802H503.754C503.052 129.05 502.155 129.973 501.063 130.571C499.971 131.143 498.684 131.429 497.202 131.429C495.876 131.429 494.771 131.26 493.887 130.922C493.003 130.558 492.288 130.051 491.742 129.401C491.196 128.751 490.806 127.984 490.572 127.1C490.364 126.19 490.26 125.189 490.26 124.097V110.837H493.575V124.487C493.575 125.735 493.939 126.723 494.667 127.451C495.395 128.179 496.396 128.543 497.67 128.543C498.684 128.543 499.555 128.387 500.283 128.075C501.037 127.763 501.661 127.321 502.155 126.749C502.649 126.177 503.013 125.514 503.247 124.76C503.507 123.98 503.637 123.135 503.637 122.225V110.837H506.952V131ZM511.931 110.837H515.051V114.035H515.129C516.507 111.591 518.691 110.369 521.681 110.369C523.007 110.369 524.112 110.551 524.996 110.915C525.88 111.279 526.595 111.786 527.141 112.436C527.687 113.086 528.064 113.866 528.272 114.776C528.506 115.66 528.623 116.648 528.623 117.74V131H525.308V117.35C525.308 116.102 524.944 115.114 524.216 114.386C523.488 113.658 522.487 113.294 521.213 113.294C520.199 113.294 519.315 113.45 518.561 113.762C517.833 114.074 517.222 114.516 516.728 115.088C516.234 115.66 515.857 116.336 515.597 117.116C515.363 117.87 515.246 118.702 515.246 119.612V131H511.931V110.837ZM538.203 110.837H542.22V113.762H538.203V126.281C538.203 126.671 538.229 126.983 538.281 127.217C538.359 127.451 538.489 127.633 538.671 127.763C538.853 127.893 539.1 127.984 539.412 128.036C539.75 128.062 540.179 128.075 540.699 128.075H542.22V131H539.685C538.827 131 538.086 130.948 537.462 130.844C536.864 130.714 536.37 130.493 535.98 130.181C535.616 129.869 535.343 129.427 535.161 128.855C534.979 128.283 534.888 127.529 534.888 126.593V113.762H531.456V110.837H534.888V104.792H538.203V110.837ZM547.931 124.643C547.957 125.371 548.126 125.995 548.438 126.515C548.75 127.009 549.153 127.412 549.647 127.724C550.167 128.01 550.739 128.218 551.363 128.348C552.013 128.478 552.676 128.543 553.352 128.543C553.872 128.543 554.418 128.504 554.99 128.426C555.562 128.348 556.082 128.205 556.55 127.997C557.044 127.789 557.447 127.49 557.759 127.1C558.071 126.684 558.227 126.164 558.227 125.54C558.227 124.682 557.902 124.032 557.252 123.59C556.602 123.148 555.783 122.797 554.795 122.537C553.833 122.251 552.78 122.004 551.636 121.796C550.492 121.562 549.426 121.25 548.438 120.86C547.476 120.444 546.67 119.872 546.02 119.144C545.37 118.416 545.045 117.402 545.045 116.102C545.045 115.088 545.266 114.217 545.708 113.489C546.176 112.761 546.761 112.176 547.463 111.734C548.191 111.266 548.997 110.928 549.881 110.72C550.791 110.486 551.688 110.369 552.572 110.369C553.716 110.369 554.769 110.473 555.731 110.681C556.693 110.863 557.538 111.201 558.266 111.695C559.02 112.163 559.618 112.813 560.06 113.645C560.502 114.451 560.762 115.465 560.84 116.687H557.525C557.473 116.037 557.304 115.504 557.018 115.088C556.732 114.646 556.368 114.295 555.926 114.035C555.484 113.775 554.99 113.593 554.444 113.489C553.924 113.359 553.391 113.294 552.845 113.294C552.351 113.294 551.844 113.333 551.324 113.411C550.83 113.489 550.375 113.632 549.959 113.84C549.543 114.022 549.205 114.282 548.945 114.62C548.685 114.932 548.555 115.348 548.555 115.868C548.555 116.44 548.75 116.921 549.14 117.311C549.556 117.675 550.076 117.987 550.7 118.247C551.324 118.481 552.026 118.689 552.806 118.871C553.586 119.027 554.366 119.196 555.146 119.378C555.978 119.56 556.784 119.781 557.564 120.041C558.37 120.301 559.072 120.652 559.67 121.094C560.294 121.51 560.788 122.043 561.152 122.693C561.542 123.343 561.737 124.149 561.737 125.111C561.737 126.333 561.477 127.347 560.957 128.153C560.463 128.959 559.8 129.609 558.968 130.103C558.162 130.597 557.239 130.935 556.199 131.117C555.185 131.325 554.171 131.429 553.157 131.429C552.039 131.429 550.973 131.312 549.959 131.078C548.945 130.844 548.048 130.467 547.268 129.947C546.488 129.401 545.864 128.699 545.396 127.841C544.928 126.957 544.668 125.891 544.616 124.643H547.931ZM578.676 120.938C578.676 122.16 578.832 123.252 579.144 124.214C579.482 125.15 579.937 125.943 580.509 126.593C581.081 127.217 581.744 127.698 582.498 128.036C583.278 128.374 584.097 128.543 584.955 128.543C585.813 128.543 586.619 128.374 587.373 128.036C588.153 127.698 588.829 127.217 589.401 126.593C589.973 125.943 590.415 125.15 590.727 124.214C591.065 123.252 591.234 122.16 591.234 120.938C591.234 119.716 591.065 118.637 590.727 117.701C590.415 116.739 589.973 115.933 589.401 115.283C588.829 114.633 588.153 114.139 587.373 113.801C586.619 113.463 585.813 113.294 584.955 113.294C584.097 113.294 583.278 113.463 582.498 113.801C581.744 114.139 581.081 114.633 580.509 115.283C579.937 115.933 579.482 116.739 579.144 117.701C578.832 118.637 578.676 119.716 578.676 120.938ZM575.166 120.938C575.166 119.456 575.374 118.078 575.79 116.804C576.206 115.504 576.83 114.386 577.662 113.45C578.494 112.488 579.521 111.734 580.743 111.188C581.965 110.642 583.369 110.369 584.955 110.369C586.567 110.369 587.971 110.642 589.167 111.188C590.389 111.734 591.416 112.488 592.248 113.45C593.08 114.386 593.704 115.504 594.12 116.804C594.536 118.078 594.744 119.456 594.744 120.938C594.744 122.42 594.536 123.798 594.12 125.072C593.704 126.346 593.08 127.464 592.248 128.426C591.416 129.362 590.389 130.103 589.167 130.649C587.971 131.169 586.567 131.429 584.955 131.429C583.369 131.429 581.965 131.169 580.743 130.649C579.521 130.103 578.494 129.362 577.662 128.426C576.83 127.464 576.206 126.346 575.79 125.072C575.374 123.798 575.166 122.42 575.166 120.938ZM598.652 110.837H601.772V114.035H601.85C603.228 111.591 605.412 110.369 608.402 110.369C609.728 110.369 610.833 110.551 611.717 110.915C612.601 111.279 613.316 111.786 613.862 112.436C614.408 113.086 614.785 113.866 614.993 114.776C615.227 115.66 615.344 116.648 615.344 117.74V131H612.029V117.35C612.029 116.102 611.665 115.114 610.937 114.386C610.209 113.658 609.208 113.294 607.934 113.294C606.92 113.294 606.036 113.45 605.282 113.762C604.554 114.074 603.943 114.516 603.449 115.088C602.955 115.66 602.578 116.336 602.318 117.116C602.084 117.87 601.967 118.702 601.967 119.612V131H598.652V110.837Z" fill="#0079D2"/>
<rect x="373" y="311.041" width="166.909" height="48" rx="4" fill="#0079D2"/>
<path d="M418.516 331.953H420.332C420.305 331.159 420.15 330.48 419.868 329.916C419.599 329.337 419.222 328.86 418.738 328.483C418.268 328.107 417.716 327.831 417.084 327.656C416.452 327.482 415.766 327.394 415.027 327.394C414.368 327.394 413.722 327.482 413.09 327.656C412.472 327.818 411.914 328.073 411.416 328.423C410.932 328.759 410.542 329.196 410.246 329.734C409.95 330.258 409.803 330.884 409.803 331.61C409.803 332.269 409.93 332.82 410.186 333.264C410.455 333.694 410.804 334.051 411.235 334.333C411.678 334.602 412.176 334.824 412.727 334.999C413.279 335.16 413.837 335.308 414.402 335.442C414.98 335.563 415.545 335.684 416.096 335.805C416.647 335.926 417.138 336.088 417.568 336.29C418.012 336.478 418.362 336.727 418.617 337.036C418.886 337.345 419.021 337.749 419.021 338.246C419.021 338.771 418.913 339.201 418.698 339.537C418.483 339.873 418.2 340.142 417.851 340.344C417.501 340.532 417.104 340.667 416.661 340.747C416.23 340.828 415.8 340.868 415.37 340.868C414.832 340.868 414.307 340.801 413.796 340.667C413.285 340.532 412.835 340.324 412.445 340.041C412.068 339.759 411.759 339.403 411.517 338.972C411.288 338.529 411.174 338.004 411.174 337.399H409.359C409.359 338.273 409.513 339.033 409.823 339.678C410.145 340.31 410.576 340.835 411.114 341.252C411.665 341.655 412.297 341.958 413.01 342.159C413.736 342.361 414.502 342.462 415.309 342.462C415.968 342.462 416.627 342.381 417.286 342.22C417.958 342.072 418.563 341.83 419.101 341.494C419.639 341.144 420.076 340.7 420.412 340.162C420.762 339.611 420.937 338.952 420.937 338.186C420.937 337.473 420.802 336.881 420.534 336.411C420.278 335.94 419.928 335.55 419.485 335.241C419.054 334.931 418.563 334.689 418.012 334.515C417.461 334.326 416.896 334.165 416.318 334.03C415.753 333.896 415.195 333.775 414.644 333.667C414.092 333.546 413.595 333.398 413.151 333.224C412.721 333.049 412.371 332.827 412.102 332.558C411.847 332.276 411.719 331.912 411.719 331.469C411.719 330.998 411.806 330.608 411.981 330.299C412.169 329.976 412.411 329.721 412.707 329.532C413.016 329.344 413.366 329.21 413.756 329.129C414.146 329.048 414.543 329.008 414.946 329.008C415.941 329.008 416.755 329.243 417.387 329.714C418.032 330.171 418.409 330.917 418.516 331.953ZM422.983 327.737V342.139H424.698V336.249C424.698 335.779 424.758 335.348 424.879 334.958C425.014 334.555 425.209 334.205 425.464 333.909C425.72 333.614 426.036 333.385 426.412 333.224C426.802 333.062 427.259 332.982 427.784 332.982C428.443 332.982 428.96 333.17 429.337 333.546C429.713 333.923 429.902 334.434 429.902 335.079V342.139H431.616V335.281C431.616 334.716 431.556 334.205 431.435 333.748C431.327 333.277 431.132 332.874 430.85 332.538C430.567 332.202 430.198 331.939 429.74 331.751C429.283 331.563 428.712 331.469 428.026 331.469C427.716 331.469 427.394 331.502 427.058 331.57C426.735 331.637 426.419 331.744 426.11 331.892C425.814 332.027 425.545 332.208 425.303 332.437C425.061 332.652 424.872 332.921 424.738 333.244H424.698V327.737H422.983ZM435.442 336.935C435.442 336.303 435.523 335.745 435.684 335.261C435.859 334.763 436.094 334.346 436.39 334.01C436.686 333.674 437.029 333.419 437.419 333.244C437.822 333.069 438.246 332.982 438.689 332.982C439.133 332.982 439.55 333.069 439.94 333.244C440.343 333.419 440.693 333.674 440.989 334.01C441.285 334.346 441.513 334.763 441.675 335.261C441.85 335.745 441.937 336.303 441.937 336.935C441.937 337.567 441.85 338.132 441.675 338.629C441.513 339.114 441.285 339.524 440.989 339.86C440.693 340.183 440.343 340.431 439.94 340.606C439.55 340.781 439.133 340.868 438.689 340.868C438.246 340.868 437.822 340.781 437.419 340.606C437.029 340.431 436.686 340.183 436.39 339.86C436.094 339.524 435.859 339.114 435.684 338.629C435.523 338.132 435.442 337.567 435.442 336.935ZM433.627 336.935C433.627 337.702 433.734 338.414 433.949 339.073C434.164 339.732 434.487 340.31 434.917 340.808C435.348 341.292 435.879 341.675 436.511 341.958C437.143 342.227 437.869 342.361 438.689 342.361C439.523 342.361 440.249 342.227 440.868 341.958C441.5 341.675 442.031 341.292 442.461 340.808C442.892 340.31 443.214 339.732 443.43 339.073C443.645 338.414 443.752 337.702 443.752 336.935C443.752 336.169 443.645 335.456 443.43 334.797C443.214 334.125 442.892 333.546 442.461 333.062C442.031 332.565 441.5 332.175 440.868 331.892C440.249 331.61 439.523 331.469 438.689 331.469C437.869 331.469 437.143 331.61 436.511 331.892C435.879 332.175 435.348 332.565 434.917 333.062C434.487 333.546 434.164 334.125 433.949 334.797C433.734 335.456 433.627 336.169 433.627 336.935ZM445.834 331.711V346.113H447.549V340.747H447.589C447.778 341.057 448.006 341.319 448.275 341.534C448.557 341.736 448.853 341.897 449.163 342.018C449.472 342.139 449.781 342.227 450.09 342.28C450.413 342.334 450.702 342.361 450.958 342.361C451.751 342.361 452.444 342.22 453.035 341.937C453.641 341.655 454.138 341.272 454.528 340.788C454.931 340.29 455.227 339.712 455.416 339.053C455.617 338.394 455.718 337.695 455.718 336.955C455.718 336.216 455.617 335.516 455.416 334.857C455.214 334.199 454.911 333.62 454.508 333.123C454.118 332.612 453.62 332.208 453.015 331.912C452.424 331.617 451.724 331.469 450.917 331.469C450.191 331.469 449.526 331.603 448.921 331.872C448.315 332.128 447.872 332.544 447.589 333.123H447.549V331.711H445.834ZM453.903 336.834C453.903 337.345 453.849 337.843 453.741 338.327C453.634 338.811 453.459 339.241 453.217 339.618C452.975 339.994 452.652 340.297 452.249 340.525C451.859 340.754 451.368 340.868 450.776 340.868C450.185 340.868 449.68 340.761 449.263 340.546C448.847 340.317 448.504 340.021 448.235 339.658C447.979 339.295 447.791 338.878 447.67 338.408C447.549 337.923 447.488 337.426 447.488 336.915C447.488 336.431 447.542 335.953 447.65 335.483C447.771 335.012 447.959 334.595 448.215 334.232C448.47 333.856 448.8 333.553 449.203 333.324C449.606 333.096 450.097 332.982 450.675 332.982C451.227 332.982 451.704 333.089 452.108 333.304C452.524 333.519 452.861 333.809 453.116 334.172C453.385 334.535 453.58 334.952 453.701 335.422C453.836 335.879 453.903 336.35 453.903 336.834ZM463.607 327.737V342.139H465.422V330.581H465.463L472.986 342.139H475.084V327.737H473.269V339.416H473.228L465.644 327.737H463.607ZM479.152 336.935C479.152 336.303 479.233 335.745 479.394 335.261C479.569 334.763 479.804 334.346 480.1 334.01C480.396 333.674 480.739 333.419 481.129 333.244C481.532 333.069 481.956 332.982 482.4 332.982C482.844 332.982 483.26 333.069 483.65 333.244C484.054 333.419 484.403 333.674 484.699 334.01C484.995 334.346 485.224 334.763 485.385 335.261C485.56 335.745 485.647 336.303 485.647 336.935C485.647 337.567 485.56 338.132 485.385 338.629C485.224 339.114 484.995 339.524 484.699 339.86C484.403 340.183 484.054 340.431 483.65 340.606C483.26 340.781 482.844 340.868 482.4 340.868C481.956 340.868 481.532 340.781 481.129 340.606C480.739 340.431 480.396 340.183 480.1 339.86C479.804 339.524 479.569 339.114 479.394 338.629C479.233 338.132 479.152 337.567 479.152 336.935ZM477.337 336.935C477.337 337.702 477.444 338.414 477.66 339.073C477.875 339.732 478.198 340.31 478.628 340.808C479.058 341.292 479.589 341.675 480.221 341.958C480.853 342.227 481.58 342.361 482.4 342.361C483.234 342.361 483.96 342.227 484.578 341.958C485.21 341.675 485.741 341.292 486.172 340.808C486.602 340.31 486.925 339.732 487.14 339.073C487.355 338.414 487.463 337.702 487.463 336.935C487.463 336.169 487.355 335.456 487.14 334.797C486.925 334.125 486.602 333.546 486.172 333.062C485.741 332.565 485.21 332.175 484.578 331.892C483.96 331.61 483.234 331.469 482.4 331.469C481.58 331.469 480.853 331.61 480.221 331.892C479.589 332.175 479.058 332.565 478.628 333.062C478.198 333.546 477.875 334.125 477.66 334.797C477.444 335.456 477.337 336.169 477.337 336.935ZM499.812 342.139L503.14 331.711H501.365L499.025 340.243H498.985L496.806 331.711H494.93L492.833 340.243H492.792L490.432 331.711H488.536L491.885 342.139H493.74L495.838 333.849H495.878L497.996 342.139H499.812Z" fill="white"/>
</svg>
